<?xml version="1.0" encoding="utf-8"?>
<!-- Generator: Adobe Illustrator 19.0.0, SVG Export Plug-In . SVG Version: 6.00 Build 0)  -->
<svg version="1.1" id="Layer_1" xmlns="http://www.w3.org/2000/svg" xmlns:xlink="http://www.w3.org/1999/xlink" x="0px" y="0px"
	 viewBox="0 533.7 612.6 259.5" style="enable-background:new 0 533.7 612.6 259.5;" xml:space="preserve">
<style type="text/css">
	.st0{fill:#F4EFCB;stroke:#FFFFFF;stroke-miterlimit:10;}
</style>
<g>
	<g>
		<path class="st0" d="M305.3,537.5H336c18.6,0,32.3,11.6,32.3,35.3c0,20.8-10.6,36.1-32.3,36.1h-30.7V537.5z M320.9,595.6h14
			c9,0,17.8-5.6,17.8-21.4c0-14.4-5-23.5-20.6-23.5h-11.2L320.9,595.6L320.9,595.6z"/>
		<path class="st0" d="M388.9,586.4c0.4,9,4.8,13.2,12.8,13.2c5.6,0,10.2-3.6,11.2-6.8h12.6c-4,12.2-12.6,17.4-24.1,17.4
			c-16.4,0-26.3-11.2-26.3-27.1c0-15.6,10.8-27.3,26.3-27.3c17.6,0,26.1,14.8,25.1,30.7C426.4,586.4,388.9,586.4,388.9,586.4z
			 M412.1,577.4c-1.4-7.2-4.4-11-11.4-11c-9,0-11.6,7-11.8,11H412.1z"/>
		<path class="st0" d="M433.2,573c0.8-13.4,12.8-17.4,24.4-17.4c10.4,0,22.7,2.4,22.7,14.8v26.9c0,4.8,0.4,9.4,1.8,11.6h-14.4
			c-0.4-1.6-1-3.2-1-5c-4.6,4.8-11.2,6.4-17.4,6.4c-9.8,0-17.6-5-17.6-15.6c0-11.8,8.8-14.6,17.6-15.8c8.8-1.2,16.8-1,16.8-6.8
			c0-6-4.2-7-9.2-7c-5.4,0-9,2.2-9.4,7.8C447.6,573,433.2,573,433.2,573z M465.9,583.6c-2.4,2.2-7.4,2.2-11.8,3
			c-4.4,1-8.4,2.4-8.4,7.6c0,5.4,4.2,6.6,8.8,6.6c11.2,0,11.6-8.8,11.6-12v-5.2H465.9z"/>
		<path class="st0" d="M490.9,557.2h13.6v9.6h0.2c2.6-6.4,9.6-11,16.4-11c1,0,2.2,0.2,3.2,0.4v13.2c-1.4-0.2-3.4-0.4-5.2-0.4
			c-10.4,0-14,7.6-14,16.6v23.3h-14.2L490.9,557.2L490.9,557.2z"/>
	</g>
</g>
<g>
	<path class="st0" d="M352.8,651.2c-1-7-7.8-12.4-15.6-12.4c-14.2,0-19.4,12-19.4,24.5c0,12,5.4,23.9,19.4,23.9
		c9.6,0,15-6.6,16.2-16h15.2c-1.6,17.8-14,29.1-31.3,29.1c-22.1,0-35.1-16.4-35.1-37.1c0-21.2,13-37.7,35.1-37.7
		c15.6,0,28.9,9.2,30.7,25.7H352.8L352.8,651.2L352.8,651.2z"/>
	<path class="st0" d="M375.7,662.8c0.8-13.4,12.8-17.4,24.3-17.4c10.4,0,22.7,2.4,22.7,14.8v26.9c0,4.6,0.4,9.4,1.8,11.6h-14.4
		c-0.4-1.6-1-3.4-1-5c-4.6,4.6-11.2,6.4-17.4,6.4c-9.8,0-17.6-5-17.6-15.6c0-11.6,8.8-14.4,17.6-15.8c8.8-1.2,16.8-1,16.8-6.8
		c0-6-4.2-7-9.2-7c-5.4,0-9,2.2-9.4,7.8h-14.2V662.8z M408.5,673.4c-2.4,2-7.4,2.2-11.8,3c-4.4,1-8.4,2.4-8.4,7.6
		c0,5.4,4.2,6.6,8.8,6.6c11.2,0,11.6-8.8,11.6-12v-5.2H408.5z"/>
	<path class="st0" d="M444.2,681.8c0.2,6.2,5.4,8.8,11,8.8c4.2,0,9.4-1.6,9.4-6.6c0-4.4-6-5.8-16-8c-8.2-1.8-16.4-4.8-16.4-13.8
		c0-13.2,11.4-16.6,22.5-16.6c11.4,0,21.8,3.8,22.7,16.6h-13.6c-0.4-5.6-4.6-7-9.8-7c-3.2,0-8,0.6-8,4.8c0,5.2,8,5.8,16.2,7.8
		c8.4,2,16.4,5,16.4,14.4c0,13.6-11.8,18-23.5,18c-12,0-23.7-4.4-24.3-18.2h13.4L444.2,681.8L444.2,681.8z"/>
	<path class="st0" d="M504.6,647H515v9.6h-10.4v25.5c0,4.8,1.2,6,6,6c1.6,0,3,0,4.4-0.4v11c-2.4,0.4-5.6,0.4-8.4,0.4
		c-8.8,0-16.4-2-16.4-12.4v-30.3h-8.6v-9.6h8.6v-15.4h14.2V647H504.6L504.6,647z"/>
</g>
<path class="st0" d="M344.6,781.3c-5.8,5.6-12,8.4-20.2,8.4c-13,0-23.1-8-23.1-21.4c0-10,7.6-16.8,16-20.8c-3.8-4.6-6.8-9-6.8-15.2
	c0-10,9-16.4,18.6-16.4c10.8,0,19.6,5.8,19.6,17.2c0,8.4-5.6,14-12.8,17.8l9.2,11.4c1.4-2.6,2.2-5.6,2.6-8.4H360
	c-0.6,6.4-2.8,12.6-7,17.6l14.6,17h-17.4L344.6,781.3z M325.1,757c-5,2.2-10,6-10,11.8c0,5.2,4.8,9.4,10.2,9.4c5.2,0,8.8-2.6,12-6.4
	L325.1,757z M330,725.9c-3.4,0-6.4,2.6-6.4,6.2c0,4.6,3,7.4,5.6,10.8c4-2.6,7.4-5,7.4-10.2C336.4,728.9,333.4,725.9,330,725.9z"/>
<path class="st0" d="M418.4,741c-1-7.2-7.8-12.6-15.6-12.6c-14.2,0-19.4,12-19.4,24.5c0,12,5.2,23.9,19.4,23.9c9.6,0,15-6.6,16.2-16
	h15.2c-1.6,17.8-14,29.1-31.3,29.1c-22.1,0-35.1-16.4-35.1-37.1c0-21.2,13-37.7,35.1-37.7c15.8,0,28.9,9.2,30.7,25.7h-15.2V741z"/>
<path class="st0" d="M443,736.8h13.6v9.6h0.2c2.6-6.4,9.6-11,16.4-11c1,0,2.2,0.2,3.2,0.4V749c-1.4-0.4-3.4-0.4-5.2-0.4
	c-10.4,0-14,7.6-14,16.6v23.3H443V736.8z"/>
<path class="st0" d="M493.3,766c0.4,9,4.8,13,12.8,13c5.6,0,10.2-3.6,11.2-6.8h12.6c-4,12.2-12.6,17.4-24.1,17.4
	c-16.4,0-26.3-11.2-26.3-27.1c0-15.6,10.8-27.3,26.3-27.3c17.6,0,26.1,14.8,25.1,30.7L493.3,766L493.3,766L493.3,766z M516.4,757
	c-1.4-7.2-4.4-11-11.4-11c-9,0-11.6,7-11.8,11H516.4z"/>
<path class="st0" d="M595.8,788.3h-14.6l-9.2-34.7h-0.2l-8.8,34.7h-14.6l-16.2-51.7h15l9.6,35.1h0.2l8.6-35.1h13.8l8.8,34.9h0.2
	l9.6-34.9h14.6L595.8,788.3z"/>
<path class="st0" d="M259.8,583.6v-33.7c0-9-7.2-16.2-16.2-16.2h-33.7c0,9.2-7.4,16.6-16.6,16.6s-16.6-7.4-16.6-16.6h-30.1
	c0,9.2-7.4,16.6-16.6,16.6c-9.2,0-16.6-7.4-16.6-16.6H83.2c0,9.2-7.4,16.6-16.6,16.6c-9.4,0-16.8-7.4-16.8-16.6H16.2
	c-9,0-16.2,7.2-16.2,16.2v33.7c9.2,0,16.6,7.4,16.6,16.6c0,9.2-7.4,16.5-16.6,16.5v30.1c9.2,0,16.6,7.4,16.6,16.6
	c0,9.2-7.4,16.6-16.6,16.6v30.1c9.2,0,16.6,7.4,16.6,16.6S9.2,743.3,0,743.3V777c0,9,7.2,16.2,16.2,16.2h33.7
	c0-9.2,7.4-16.6,16.6-16.6S83,783.9,83,793.1h30.1c0-9.2,7.4-16.6,16.6-16.6s16.6,7.4,16.6,16.6h30.1c0-9.2,7.4-16.6,16.6-16.6
	c9.2,0,16.6,7.4,16.6,16.6h33.7c9,0,16.2-7.2,16.2-16.2v-33.7c-9.2,0-16.6-7.4-16.6-16.6c0-9.2,7.4-16.6,16.6-16.6v-29.7
	c-9.2,0-16.6-7.4-16.6-16.6c0-9.2,7.4-16.6,16.6-16.6v-30.3c-9.2,0-16.6-7.4-16.6-16.6C243.2,591,250.6,583.6,259.8,583.6z
	 M223.9,661.2v88.4h-88.2H40.3V573h95.2h88.4V661.2z"/>
<path class="st0" d="M135.5,588.6H55.9v145.3h79.6c40.1,0,72.6-32.5,72.6-72.6C208.1,621.1,175.6,588.6,135.5,588.6z M133.9,714.7
	c-14.4,0-28.3-6-38.3-16.6l11.4-10.8c7.2,7.6,16.8,11.6,26.9,11.6c20.6,0,37.1-16.6,37.1-37.1s-16.6-37.1-37.1-37.1h-0.2
	c-10.4-0.4-20,3.6-27.3,10.8l-11-11c10.2-10.2,24.3-15.8,38.7-15.4c28.9,0,52.7,23.7,52.7,52.7C186.6,690.9,163,714.7,133.9,714.7z
	 M139.3,655.8c-3.8-3.8-10.2-3.8-14,0l-10.6-10.4c9.6-9.6,25.3-9.6,34.9,0c9.6,9.6,9.6,25.1,0,34.7l-10.4-10.4
	C143.1,666,143.1,659.6,139.3,655.8z"/>
</svg>
