<?xml version="1.0" encoding="utf-8"?>
<!-- Generator: Adobe Illustrator 17.1.0, SVG Export Plug-In . SVG Version: 6.00 Build 0)  -->
<!DOCTYPE svg PUBLIC "-//W3C//DTD SVG 1.1//EN" "http://www.w3.org/Graphics/SVG/1.1/DTD/svg11.dtd">
<svg version="1.1" id="Layer_1" xmlns="http://www.w3.org/2000/svg" xmlns:xlink="http://www.w3.org/1999/xlink" x="0px" y="0px"
	 viewBox="0 0 306.7 130.2" enable-background="new 0 0 306.7 130.2" xml:space="preserve">
<g>
	<g>
		<path d="M153,1.9h15.4c9.3,0,16.2,5.8,16.2,17.7c0,10.4-5.3,18.1-16.2,18.1H153V1.9z M160.8,31h7c4.5,0,8.9-2.8,8.9-10.7
			c0-7.2-2.5-11.8-10.3-11.8h-5.6V31z"/>
		<path d="M194.9,26.4c0.2,4.5,2.4,6.6,6.4,6.6c2.8,0,5.1-1.8,5.6-3.4h6.3c-2,6.1-6.3,8.7-12.1,8.7c-8.2,0-13.2-5.6-13.2-13.6
			c0-7.8,5.4-13.7,13.2-13.7c8.8,0,13.1,7.4,12.6,15.4H194.9z M206.5,21.9c-0.7-3.6-2.2-5.5-5.7-5.5c-4.5,0-5.8,3.5-5.9,5.5H206.5z"
			/>
		<path d="M217.1,19.7c0.4-6.7,6.4-8.7,12.2-8.7c5.2,0,11.4,1.2,11.4,7.4v13.5c0,2.4,0.2,4.7,0.9,5.8h-7.2c-0.2-0.8-0.5-1.6-0.5-2.5
			c-2.3,2.4-5.6,3.2-8.7,3.2c-4.9,0-8.8-2.5-8.8-7.8c0-5.9,4.4-7.3,8.8-7.9c4.4-0.6,8.4-0.5,8.4-3.4c0-3-2.1-3.5-4.6-3.5
			c-2.7,0-4.5,1.1-4.7,3.9H217.1z M233.5,25c-1.2,1.1-3.7,1.1-5.9,1.5c-2.2,0.5-4.2,1.2-4.2,3.8c0,2.7,2.1,3.3,4.4,3.3
			c5.6,0,5.8-4.4,5.8-6V25z"/>
		<path d="M246,11.8h6.8v4.8h0.1c1.3-3.2,4.8-5.5,8.2-5.5c0.5,0,1.1,0.1,1.6,0.2v6.6c-0.7-0.1-1.7-0.2-2.6-0.2c-5.2,0-7,3.8-7,8.3
			v11.7H246V11.8z"/>
	</g>
</g>
<g>
	<path d="M176.8,58.9c-0.5-3.5-3.9-6.2-7.8-6.2c-7.1,0-9.7,6-9.7,12.3c0,6,2.7,12,9.7,12c4.8,0,7.5-3.3,8.1-8h7.6
		c-0.8,8.9-7,14.6-15.7,14.6c-11.1,0-17.6-8.2-17.6-18.6c0-10.6,6.5-18.9,17.6-18.9c7.8,0,14.5,4.6,15.4,12.9H176.8z"/>
	<path d="M188.3,64.7c0.4-6.7,6.4-8.7,12.2-8.7c5.2,0,11.4,1.2,11.4,7.4v13.5c0,2.3,0.2,4.7,0.9,5.8h-7.2c-0.2-0.8-0.5-1.7-0.5-2.5
		c-2.3,2.3-5.6,3.2-8.7,3.2c-4.9,0-8.8-2.5-8.8-7.8c0-5.8,4.4-7.2,8.8-7.9c4.4-0.6,8.4-0.5,8.4-3.4c0-3-2.1-3.5-4.6-3.5
		c-2.7,0-4.5,1.1-4.7,3.9H188.3z M204.7,70c-1.2,1-3.7,1.1-5.9,1.5c-2.2,0.5-4.2,1.2-4.2,3.8c0,2.7,2.1,3.3,4.4,3.3
		c5.6,0,5.8-4.4,5.8-6V70z"/>
	<path d="M222.6,74.2c0.1,3.1,2.7,4.4,5.5,4.4c2.1,0,4.7-0.8,4.7-3.3c0-2.2-3-2.9-8-4c-4.1-0.9-8.2-2.4-8.2-6.9
		c0-6.6,5.7-8.3,11.3-8.3c5.7,0,10.9,1.9,11.4,8.3h-6.8c-0.2-2.8-2.3-3.5-4.9-3.5c-1.6,0-4,0.3-4,2.4c0,2.6,4,2.9,8.1,3.9
		c4.2,1,8.2,2.5,8.2,7.2c0,6.8-5.9,9-11.8,9c-6,0-11.9-2.2-12.2-9.1H222.6z"/>
	<path d="M252.9,56.8h5.2v4.8h-5.2v12.8c0,2.4,0.6,3,3,3c0.8,0,1.5,0,2.2-0.2v5.5c-1.2,0.2-2.8,0.2-4.2,0.2c-4.4,0-8.2-1-8.2-6.2
		V61.5h-4.3v-4.8h4.3V49h7.1V56.8z"/>
</g>
<g>
	<g>
		<path d="M172.7,124.1c-2.9,2.8-6,4.2-10.1,4.2c-6.5,0-11.6-4-11.6-10.7c0-5,3.8-8.4,8-10.4c-1.9-2.3-3.4-4.5-3.4-7.6
			c0-5,4.5-8.2,9.3-8.2c5.4,0,9.8,2.9,9.8,8.6c0,4.2-2.8,7-6.4,8.9l4.6,5.7c0.7-1.3,1.1-2.8,1.3-4.2h6.2c-0.3,3.2-1.4,6.3-3.5,8.8
			l7.3,8.5h-8.7L172.7,124.1z M162.9,111.9c-2.5,1.1-5,3-5,5.9c0,2.6,2.4,4.7,5.1,4.7c2.6,0,4.4-1.3,6-3.2L162.9,111.9z M165.4,96.3
			c-1.7,0-3.2,1.3-3.2,3.1c0,2.3,1.5,3.7,2.8,5.4c2-1.3,3.7-2.5,3.7-5.1C168.6,97.8,167.1,96.3,165.4,96.3z"/>
		<path d="M209.7,103.9c-0.5-3.6-3.9-6.3-7.8-6.3c-7.1,0-9.7,6-9.7,12.3c0,6,2.6,12,9.7,12c4.8,0,7.5-3.3,8.1-8h7.6
			c-0.8,8.9-7,14.6-15.7,14.6c-11.1,0-17.6-8.2-17.6-18.6c0-10.6,6.5-18.9,17.6-18.9c7.9,0,14.5,4.6,15.4,12.9H209.7z"/>
		<path d="M222,101.8h6.8v4.8h0.1c1.3-3.2,4.8-5.5,8.2-5.5c0.5,0,1.1,0.1,1.6,0.2v6.6c-0.7-0.2-1.7-0.2-2.6-0.2c-5.2,0-7,3.8-7,8.3
			v11.7H222V101.8z"/>
		<path d="M247.2,116.4c0.2,4.5,2.4,6.5,6.4,6.5c2.8,0,5.1-1.8,5.6-3.4h6.3c-2,6.1-6.3,8.7-12.1,8.7c-8.2,0-13.2-5.6-13.2-13.6
			c0-7.8,5.4-13.7,13.2-13.7c8.8,0,13.1,7.4,12.6,15.4H247.2z M258.8,111.9c-0.7-3.6-2.2-5.5-5.7-5.5c-4.5,0-5.8,3.5-5.9,5.5H258.8z
			"/>
		<path d="M298.6,127.6h-7.3l-4.6-17.4h-0.1l-4.4,17.4h-7.3l-8.2-25.9h7.5l4.8,17.6h0.1l4.3-17.6h6.9l4.4,17.5h0.1l4.8-17.5h7.3
			L298.6,127.6z"/>
	</g>
	<path d="M130.2,25V8.1c0-4.5-3.6-8.1-8.1-8.1h-16.9c0,4.6-3.7,8.3-8.3,8.3c-4.6,0-8.3-3.7-8.3-8.3H73.5c0,4.6-3.7,8.3-8.3,8.3
		c-4.6,0-8.3-3.7-8.3-8.3H41.7c0,4.6-3.7,8.3-8.3,8.3C28.7,8.3,25,4.6,25,0H8.1C3.6,0,0,3.6,0,8.1V25c4.6,0,8.3,3.7,8.3,8.3
		c0,4.6-3.7,8.3-8.3,8.3v15.1c4.6,0,8.3,3.7,8.3,8.3c0,4.6-3.7,8.3-8.3,8.3v15.1c4.6,0,8.3,3.7,8.3,8.3c0,4.6-3.7,8.3-8.3,8.3v16.9
		c0,4.5,3.6,8.1,8.1,8.1H25c0-4.6,3.7-8.3,8.3-8.3c4.6,0,8.3,3.7,8.3,8.3h15.1c0-4.6,3.7-8.3,8.3-8.3c4.6,0,8.3,3.7,8.3,8.3h15.1
		c0-4.6,3.7-8.3,8.3-8.3c4.6,0,8.3,3.7,8.3,8.3h16.9c4.5,0,8.1-3.6,8.1-8.1v-16.9c-4.6,0-8.3-3.7-8.3-8.3c0-4.6,3.7-8.3,8.3-8.3
		V73.5c-4.6,0-8.3-3.7-8.3-8.3c0-4.6,3.7-8.3,8.3-8.3V41.7c-4.6,0-8.3-3.7-8.3-8.3C121.9,28.7,125.6,25,130.2,25"/>
	<path fill="#FFFFFF" d="M67.9,19.7H20.2v88.5h47.8h44.2V63.9V19.7H67.9z M28,100.4V27.5h39.9c20.1,0,36.4,16.3,36.4,36.4
		c0,20.1-16.3,36.4-36.4,36.4H28z"/>
	<path fill="#FFFFFF" d="M75,73.4l-5.2-5.2c1.9-1.9,1.9-5.1,0-7c-1.9-1.9-5.1-1.9-7,0L57.5,56c4.8-4.8,12.7-4.8,17.5,0
		C79.8,60.8,79.8,68.6,75,73.4z"/>
	<path fill="#FFFFFF" d="M67.1,90.7c-7.2,0-14.2-3-19.2-8.3l5.7-5.4c3.6,3.8,8.4,5.8,13.5,5.8c10.3,0,18.6-8.3,18.6-18.6
		c0-10.3-8.3-18.6-18.6-18.6l-0.1,0c-5.2-0.2-10,1.8-13.7,5.4l-5.5-5.5c5.1-5.1,12.2-7.9,19.4-7.7c14.5,0,26.4,11.9,26.4,26.4
		C93.5,78.8,81.7,90.7,67.1,90.7z"/>
</g>
</svg>
