<?xml version="1.0" encoding="utf-8"?>
<!-- Generator: Adobe Illustrator 18.0.0, SVG Export Plug-In . SVG Version: 6.00 Build 0)  -->
<!DOCTYPE svg PUBLIC "-//W3C//DTD SVG 1.1//EN" "http://www.w3.org/Graphics/SVG/1.1/DTD/svg11.dtd">
<svg version="1.1" id="Layer_1" xmlns="http://www.w3.org/2000/svg" xmlns:xlink="http://www.w3.org/1999/xlink" x="0px" y="0px"
	 viewBox="222.7 312.6 166.8 166.8" enable-background="new 222.7 312.6 166.8 166.8" xml:space="preserve">
<path fill="#FFFFFF" d="M378.8,396c0-5.9,4.8-10.7,10.7-10.7V366c-5.9,0-10.7-4.8-10.7-10.7s4.8-10.7,10.7-10.7V323
	c0-5.8-4.7-10.4-10.4-10.4h-21.6c0,5.9-4.8,10.7-10.7,10.7s-10.7-4.8-10.7-10.7h-19.3c0,5.9-4.8,10.7-10.7,10.7s-10.7-4.8-10.7-10.7
	h-19.3c0,5.9-4.8,10.7-10.7,10.7c-5.9,0-10.7-4.8-10.7-10.7h-21.6c-5.8,0-10.4,4.7-10.4,10.4v21.6c5.9,0,10.7,4.8,10.7,10.7
	s-4.8,10.7-10.7,10.7v19.3c5.9,0,10.7,4.8,10.7,10.7c0,5.9-4.8,10.7-10.7,10.7V426c5.9,0,10.7,4.8,10.7,10.7
	c0,5.9-4.8,10.7-10.7,10.7V469c0,5.8,4.7,10.4,10.4,10.4h21.6c0-5.9,4.8-10.7,10.7-10.7s10.7,4.8,10.7,10.7h19.3
	c0-5.9,4.8-10.7,10.7-10.7s10.7,4.8,10.7,10.7h19.3c0-5.9,4.8-10.7,10.7-10.7s10.7,4.8,10.7,10.7h21.6c5.8,0,10.4-4.7,10.4-10.4
	v-21.6c-5.9,0-10.7-4.8-10.7-10.7c0-5.9,4.8-10.7,10.7-10.7v-19.3C383.6,406.7,378.8,401.9,378.8,396z M362.5,452.3H249.8V339.7
	h112.7V452.3z"/>
<g>
	<g>
		<path fill="#FFFFFF" d="M336.3,383.1l-2.9,2.9l-17.2-17.2l2.9-2.9c3.2-3.2,8.3-3.2,11.5,0l5.7,5.7
			C339.4,374.8,339.4,379.9,336.3,383.1L336.3,383.1z M296.1,417.6c-0.8,0.8-0.8,2.1,0,2.9s2.1,0.8,2.9,0l31.6-31.6l-2.9-2.9
			L296.1,417.6z M281.7,403.2c-0.8,0.8-0.8,2.1,0,2.9s2.1,0.8,2.9,0l31.6-31.6l-2.9-2.9L281.7,403.2z M319,377.4L287.4,409
			c-1.6,1.6-1.6,4.2,0,5.7c1.6,1.6,4.2,1.6,5.7,0l31.6-31.6L319,377.4z M293.2,423.3c-1-1-1.4-2.2-1.6-3.5c-0.4,0.1-0.8,0.1-1.3,0.1
			c-2.2,0-4.2-0.8-5.7-2.4c-1.5-1.5-2.4-3.6-2.4-5.7c0-0.4,0.1-0.8,0.1-1.2c-1.3-0.2-2.5-0.8-3.5-1.7c-0.1-0.1-0.1-0.2-0.2-0.3
			l-5,19.8l19.8-5C293.4,423.4,293.3,423.4,293.2,423.3L293.2,423.3z"/>
	</g>
</g>
</svg>
