<?xml version="1.0" encoding="utf-8"?>
<!-- Generator: Adobe Illustrator 18.0.0, SVG Export Plug-In . SVG Version: 6.00 Build 0)  -->
<!DOCTYPE svg PUBLIC "-//W3C//DTD SVG 1.1//EN" "http://www.w3.org/Graphics/SVG/1.1/DTD/svg11.dtd">
<svg version="1.1" id="Layer_1" xmlns="http://www.w3.org/2000/svg" xmlns:xlink="http://www.w3.org/1999/xlink" x="0px" y="0px"
	 viewBox="0 0 166.7 166.7" enable-background="new 0 0 166.7 166.7" xml:space="preserve">
<path fill="#FFFFFF" d="M156,83.3c0-5.9,4.8-10.7,10.7-10.7V53.3c-5.9,0-10.7-4.8-10.7-10.7S160.8,32,166.7,32V10.4
	C166.7,4.7,162,0,156.3,0h-21.6c0,5.9-4.8,10.7-10.7,10.7S113.3,5.9,113.3,0H94c0,5.9-4.8,10.7-10.7,10.7S72.7,5.9,72.7,0H53.3
	c0,5.9-4.8,10.7-10.7,10.7C36.8,10.7,32,5.9,32,0H10.4C4.7,0,0,4.7,0,10.4V32c5.9,0,10.7,4.8,10.7,10.7S5.9,53.3,0,53.3v19.3
	c5.9,0,10.7,4.8,10.7,10.7C10.7,89.2,5.9,94,0,94v19.3c5.9,0,10.7,4.8,10.7,10.7c0,5.9-4.8,10.7-10.7,10.7v21.6
	c0,5.8,4.7,10.4,10.4,10.4H32c0-5.9,4.8-10.7,10.7-10.7c5.9,0,10.7,4.8,10.7,10.7h19.3c0-5.9,4.8-10.7,10.7-10.7S94,160.8,94,166.7
	h19.3c0-5.9,4.8-10.7,10.7-10.7s10.7,4.8,10.7,10.7h21.6c5.8,0,10.4-4.7,10.4-10.4v-21.6c-5.9,0-10.7-4.8-10.7-10.7
	c0-5.9,4.8-10.7,10.7-10.7V94C160.8,94,156,89.2,156,83.3z M139.7,139.7H27V27h112.7V139.7z"/>
<g>
	<path fill-rule="evenodd" clip-rule="evenodd" fill="#FFFFFF" d="M109.1,110.1v-56c0-1.7-2.1-2.1-2.1-2.1H63.9
		c-6.3,0-6.3,6.7-6.3,6.7v53.8c0,1.2,1,2.2,2.2,2.2h40.3c1.2,0,2.2-1,2.2-2.2h4.5C109.3,112.5,109.1,110.1,109.1,110.1L109.1,110.1z
		 M66.5,110.9h-3.9v-49h3.9V110.9z M104.7,109c0,0-0.4,1.5-2.3,1.5V61c0-1.2-1-2.2-2.2-2.2H99c0.2,0,0.3,0.2,0.3,0.3v25.6
		c0,0.1-0.1,0.3-0.2,0.3c-0.2,0.1-0.3,0-0.4-0.1l-6.2-6.2L86.2,85c-0.1,0.1-0.2,0.1-0.3,0.1c0,0-0.1,0-0.1,0
		c-0.2-0.1-0.2-0.2-0.2-0.3V59.1c0-0.2,0.1-0.3,0.3-0.4l-23.8,0c0-1.5,2.3-2.3,2.3-2.3h38.1c2.4,0,2.3,2.1,2.3,2.1V109z M104.7,109"
		/>
</g>
</svg>
