<?xml version="1.0" encoding="utf-8"?>
<!-- Generator: Adobe Illustrator 17.1.0, SVG Export Plug-In . SVG Version: 6.00 Build 0)  -->
<!DOCTYPE svg PUBLIC "-//W3C//DTD SVG 1.1//EN" "http://www.w3.org/Graphics/SVG/1.1/DTD/svg11.dtd">
<svg version="1.1" id="Layer_1" xmlns="http://www.w3.org/2000/svg" xmlns:xlink="http://www.w3.org/1999/xlink" x="0px" y="0px"
	 viewBox="253.6 344.5 105 105" enable-background="new 253.6 344.5 105 105" xml:space="preserve">
<g>
	<path class="stamp" fill="#59c2ef" d="M358.6,364.7v-13.6c0-3.6-2.9-6.6-6.6-6.6h-13.6c0,3.7-3,6.7-6.7,6.7s-6.7-3-6.7-6.7h-12.2
		c0,3.7-3,6.7-6.7,6.7s-6.7-3-6.7-6.7h-12.2c0,3.7-3,6.7-6.7,6.7s-6.7-3-6.7-6.7h-13.6c-3.6,0-6.6,2.9-6.6,6.6v13.6
		c3.7,0,6.7,3,6.7,6.7s-3,6.7-6.7,6.7v12.2c3.7,0,6.7,3,6.7,6.7s-3,6.7-6.7,6.7v12.2c3.7,0,6.7,3,6.7,6.7s-3,6.7-6.7,6.7v13.6
		c0,3.6,2.9,6.6,6.6,6.6h13.6c0-3.7,3-6.7,6.7-6.7s6.7,3,6.7,6.7h12.2c0-3.7,3-6.7,6.7-6.7s6.7,3,6.7,6.7H325c0-3.7,3-6.7,6.7-6.7
		s6.7,3,6.7,6.7H352c3.6,0,6.6-2.9,6.6-6.6v-13.6c-3.7,0-6.7-3-6.7-6.7s3-6.7,6.7-6.7v-12.2c-3.7,0-6.7-3-6.7-6.7s3-6.7,6.7-6.7
		v-12.2c-3.7,0-6.7-3-6.7-6.7S354.9,364.7,358.6,364.7z M344,396v35.6h-35.6h-38.5v-71.3h38.5H344V396z"/>
	<rect class="rect" x="276.2" y="366.7" fill="#59c2ef" width="61.5" height="58.7"/>
</g>
</svg>
