<?xml version="1.0" encoding="utf-8"?>
<!-- Generator: Adobe Illustrator 17.1.0, SVG Export Plug-In . SVG Version: 6.00 Build 0)  -->
<!DOCTYPE svg PUBLIC "-//W3C//DTD SVG 1.1//EN" "http://www.w3.org/Graphics/SVG/1.1/DTD/svg11.dtd">
<svg version="1.1" id="Layer_1" xmlns="http://www.w3.org/2000/svg" xmlns:xlink="http://www.w3.org/1999/xlink" x="0px" y="0px"
	 viewBox="0 0 606 341" enable-background="new 0 0 606 341" xml:space="preserve">
<rect fill="#EEEEEE" width="606" height="341"/>
<g>
	<path fill="#DDDDDD" d="M399.9,111V85.8c0-6.7-5.4-12.1-12.1-12.1h-25.2c0,6.8-5.5,12.4-12.4,12.4c-6.8,0-12.4-5.5-12.4-12.4h-22.5
		c0,6.8-5.5,12.4-12.4,12.4c-6.8,0-12.4-5.5-12.4-12.4h-22.6c0,6.8-5.5,12.4-12.4,12.4c-7,0-12.5-5.5-12.5-12.4h-25.2
		c-6.7,0-12.1,5.4-12.1,12.1V111c6.8,0,12.4,5.5,12.4,12.4c0,6.8-5.5,12.4-12.4,12.4v22.5c6.8,0,12.4,5.5,12.4,12.4
		c0,6.8-5.5,12.4-12.4,12.4v22.5c6.8,0,12.4,5.5,12.4,12.4c0,6.8-5.5,12.4-12.4,12.4v25.2c0,6.7,5.4,12.1,12.1,12.1h25.2
		c0-6.8,5.5-12.4,12.4-12.4c6.8,0,12.4,5.5,12.4,12.4h22.5c0-6.8,5.5-12.4,12.4-12.4c6.8,0,12.4,5.5,12.4,12.4h22.5
		c0-6.8,5.5-12.4,12.4-12.4c6.8,0,12.4,5.5,12.4,12.4h25.2c6.7,0,12.1-5.4,12.1-12.1V230c-6.8,0-12.4-5.5-12.4-12.4
		s5.5-12.4,12.4-12.4v-22.2c-6.8,0-12.4-5.5-12.4-12.4c0-6.8,5.5-12.4,12.4-12.4v-22.6c-6.8,0-12.4-5.5-12.4-12.4
		C387.5,116.5,393.1,111,399.9,111z M373.1,168.9v65.9h-65.8h-71.2V103.1h71h65.9V168.9z"/>
	<path fill="#DDDDDD" d="M307.2,114.7h-59.4V223h59.4c29.9,0,54.2-24.3,54.2-54.2C361.4,138.9,337.1,114.7,307.2,114.7z M306,208.8
		c-10.7,0-21.1-4.5-28.6-12.4l8.5-8c5.4,5.7,12.5,8.6,20.1,8.6c15.3,0,27.7-12.4,27.7-27.7s-12.4-27.7-27.7-27.7h-0.1
		c-7.7-0.3-14.9,2.7-20.4,8l-8.2-8.2c7.6-7.6,18.2-11.8,28.9-11.5c21.6,0,39.3,17.7,39.3,39.3C345.3,191,327.7,208.8,306,208.8z
		 M310,164.8c-2.8-2.8-7.6-2.8-10.4,0l-7.9-7.7c7.1-7.1,18.9-7.1,26,0c7.1,7.1,7.1,18.8,0,25.9l-7.7-7.7
		C312.8,172.4,312.8,167.7,310,164.8z"/>
</g>
</svg>
