<?xml version="1.0" encoding="utf-8"?>
<!-- Generator: Adobe Illustrator 17.1.0, SVG Export Plug-In . SVG Version: 6.00 Build 0)  -->
<!DOCTYPE svg PUBLIC "-//W3C//DTD SVG 1.1//EN" "http://www.w3.org/Graphics/SVG/1.1/DTD/svg11.dtd">
<svg version="1.1" id="Layer_1" xmlns="http://www.w3.org/2000/svg" xmlns:xlink="http://www.w3.org/1999/xlink" x="0px" y="0px"
	 viewBox="72.7 162.9 120 120" enable-background="new 72.7 162.9 120 120" xml:space="preserve">
<g>
	<path fill="#636467" d="M192.7,186v-15.5c0-4.2-3.4-7.5-7.5-7.5h-15.5c0,4.2-3.4,7.7-7.7,7.7s-7.7-3.4-7.7-7.7h-13.9
		c0,4.2-3.4,7.7-7.7,7.7s-7.7-3.4-7.7-7.7h-13.9c0,4.2-3.4,7.7-7.7,7.7s-7.7-3.4-7.7-7.7H80.3c-4.2,0-7.5,3.3-7.5,7.6V186
		c4.2,0,7.7,3.4,7.7,7.7s-3.4,7.6-7.7,7.6v13.9c4.2,0,7.7,3.4,7.7,7.7s-3.4,7.7-7.7,7.7v13.9c4.2,0,7.7,3.4,7.7,7.7
		s-3.4,7.7-7.7,7.7v15.5c0,4.1,3.3,7.5,7.5,7.5h15.5c0-4.2,3.4-7.7,7.7-7.7c4.2,0,7.7,3.4,7.7,7.7h13.9c0-4.2,3.4-7.7,7.7-7.7
		s7.7,3.4,7.7,7.7h13.9c0-4.2,3.4-7.7,7.7-7.7s7.7,3.4,7.7,7.7h15.5c4.1,0,7.5-3.3,7.5-7.5v-15.5c-4.2,0-7.7-3.4-7.7-7.7
		s3.4-7.7,7.7-7.7v-13.9c-4.2,0-7.7-3.4-7.7-7.7s3.4-7.7,7.7-7.7v-13.9c-4.2,0-7.7-3.4-7.7-7.7C185,189.4,188.4,186,192.7,186z
		 M176,221.8v40.7h-40.7h-44v-81.3h44H176V221.8L176,221.8z"/>
</g>
</svg>
