<?xml version="1.0" encoding="utf-8"?>
<!-- Generator: Adobe Illustrator 17.1.0, SVG Export Plug-In . SVG Version: 6.00 Build 0)  -->
<!DOCTYPE svg PUBLIC "-//W3C//DTD SVG 1.1//EN" "http://www.w3.org/Graphics/SVG/1.1/DTD/svg11.dtd">
<svg version="1.1" id="Layer_1" xmlns="http://www.w3.org/2000/svg" xmlns:xlink="http://www.w3.org/1999/xlink" x="0px" y="0px"
	 viewBox="73.3 343.7 612 611.6" enable-background="new 73.3 343.7 612 611.6" xml:space="preserve">
<g>
	<path fill="#636467" d="M684.7,461v-79c0-21.4-17.3-38.2-38.2-38.2h-79c0,21.4-17.3,39.3-39.3,39.3c-21.9,0-39.3-17.3-39.3-39.3
		H418c0,21.4-17.3,39.3-39.3,39.3c-21.9,0-39.3-17.3-39.3-39.3h-70.9c0,21.4-17.3,39.3-39.3,39.3S190,365.6,190,343.7h-78.5
		c-21.4,0-38.2,16.8-38.2,38.8V461c21.4,0,39.3,17.3,39.3,39.3S95.3,539,73.3,539v70.9c21.4,0,39.3,17.3,39.3,39.3
		c0,21.9-17.3,39.3-39.3,39.3v70.9c21.4,0,39.3,17.3,39.3,39.3S95.3,838,73.3,838v79c0,20.9,16.8,38.2,38.2,38.2h79
		c0-21.4,17.3-39.3,39.3-39.3c21.4,0,39.3,17.3,39.3,39.3H340c0-21.4,17.3-39.3,39.3-39.3c21.9,0,39.3,17.3,39.3,39.3h70.9
		c0-21.4,17.3-39.3,39.3-39.3c21.9,0,39.3,17.3,39.3,39.3h79c20.9,0,38.2-16.8,38.2-38.2v-79c-21.4,0-39.3-17.3-39.3-39.3
		s17.3-39.3,39.3-39.3v-70.9c-21.4,0-39.3-17.3-39.3-39.3c0-21.9,17.3-39.3,39.3-39.3V539c-21.4,0-39.3-17.3-39.3-39.3
		C645.4,478.3,662.8,461,684.7,461z M599.5,643.6v207.6H392H167.6V436.5H392h207.6L599.5,643.6L599.5,643.6z"/>
</g>
<rect x="167.6" y="436.5" opacity="0.5" fill="#FFFFFF" enable-background="new    " width="432" height="414.6"/>
</svg>
