<?xml version="1.0" encoding="utf-8"?>
<!-- Generator: Adobe Illustrator 18.0.0, SVG Export Plug-In . SVG Version: 6.00 Build 0)  -->
<!DOCTYPE svg PUBLIC "-//W3C//DTD SVG 1.1//EN" "http://www.w3.org/Graphics/SVG/1.1/DTD/svg11.dtd">
<svg version="1.1" id="Layer_1" xmlns="http://www.w3.org/2000/svg" xmlns:xlink="http://www.w3.org/1999/xlink" x="0px" y="0px"
	 viewBox="-71.5 1491.2 612 128.6" enable-background="new -71.5 1491.2 612 128.6" xml:space="preserve">
<g enable-background="new    ">
	<path fill="#59C2EF" d="M-19.5,1576.6v13.3h-52l28.7-47.3h-23.8v-13.3h50.1l-28.6,47.3H-19.5z"/>
	<path fill="#59C2EF" d="M5.4,1542.7v10.1h17.7v13.3H5.4v10.5h18.7v13.3h-34.5v-60.6h34.5v13.3L5.4,1542.7L5.4,1542.7z"/>
	<path fill="#59C2EF" d="M84.3,1590H64.7l-14.9-23.3h-0.2v23.3H33.8v-60.6h23.6c11.9,0,21,5.7,21,18.7c0,8.3-4.7,15.6-13.3,17.1
		L84.3,1590z M49.6,1556.6h1.6c5.2,0,11-1,11-7.5c0-6.6-5.8-7.5-11-7.5h-1.6V1556.6z"/>
	<path fill="#59C2EF" d="M152.5,1558.5c0,19.6-14.1,33.5-33.5,33.5s-33.5-13.8-33.5-33.5c0-18.3,16.1-31.2,33.5-31.2
		S152.5,1540.2,152.5,1558.5z M101.9,1558.6c0,10.5,7.7,18.1,17.1,18.1s17.1-7.6,17.1-18.1c0-8.3-7.7-16-17.1-16
		S101.9,1550.2,101.9,1558.6z"/>
</g>
<path fill="#5BC2EF" d="M257.5,1602c-0.5,0-1,0-1.5-0.5l-28.7-14.8l-28.7,14.8c-0.5,0.5-1,0.5-1.5,0.5c-1,0-1.5-0.5-2-1
	c-1-1-1.5-2-1.5-3.4l5.5-32.1l-23.2-22.7c-1-1-1-2.4-1-3.4c0.5-1,1.5-2.4,2.9-2.4l32.1-4.9l14.3-29.2c1-1,2-2,3.4-2c1,0,2.9,1,3.4,2
	l14.3,29.2l32.1,4.9c1,0.5,2.4,1,2.9,2.4c0.5,1,0,2.9-1,3.4l-23.2,22.7l5.5,32.1c0.5,1-0.5,2.9-1.5,3.4
	C259.4,1601.5,258.4,1602,257.5,1602z"/>
<g>
	<path fill="#FFFFFF" d="M227.3,1619.8c-35.4,0-64.3-28.8-64.3-64.3s28.8-64.3,64.3-64.3s64.3,28.8,64.3,64.3
		S262.7,1619.8,227.3,1619.8z M227.3,1496.2c-32.7,0-59.3,26.6-59.3,59.3s26.6,59.3,59.3,59.3c32.7,0,59.3-26.6,59.3-59.3
		S260,1496.2,227.3,1496.2z"/>
	
		<rect x="225" y="1493.9" transform="matrix(0.7071 0.7071 -0.7071 0.7071 1166.7251 294.7657)" fill="#FFFFFF" width="5" height="123.6"/>
</g>
<g enable-background="new    ">
	<path fill="#59C2EF" d="M358.3,1544.9c-2.9-2.4-6.6-4-10.5-4c-2.9,0-6.8,1.7-6.8,5.1c0,3.5,4.3,4.9,7,5.8l4,1.2
		c8.4,2.4,15,6.8,15,16.5c0,6.1-1.5,12.2-6.3,16.3c-4.7,4-11.1,5.7-17.2,5.7c-7.6,0-15.1-2.5-21.3-7l6.8-12.7
		c3.9,3.4,8.6,6.3,14,6.3c3.7,0,7.6-1.9,7.6-6.1c0-4.4-6.2-6-9.6-7c-9.9-2.8-16.4-5.4-16.4-17.1c0-12.3,8.8-20.4,21-20.4
		c6.1,0,13.6,2,19,5L358.3,1544.9z"/>
	<path fill="#59C2EF" d="M403.6,1590h-15.8v-47.3h-13v-13.3h41.8v13.3h-13L403.6,1590L403.6,1590z"/>
	<path fill="#59C2EF" d="M437.8,1579.5l-4.2,10.6h-16.7l23.3-60.6h17.2l22.8,60.6h-16.8l-3.9-10.6H437.8z M448.9,1548.1h-0.2
		l-6.6,19.3h13.1L448.9,1548.1z"/>
	<path fill="#59C2EF" d="M540.5,1590h-19.6l-14.9-23.3h-0.2v23.3h-15.8v-60.6h23.6c11.9,0,21,5.7,21,18.7c0,8.3-4.7,15.6-13.2,17.1
		L540.5,1590z M505.8,1556.6h1.6c5.2,0,11-1,11-7.5c0-6.6-5.8-7.5-11-7.5h-1.6V1556.6z"/>
</g>
</svg>
