<?xml version="1.0" encoding="utf-8"?>
<!-- Generator: Adobe Illustrator 17.1.0, SVG Export Plug-In . SVG Version: 6.00 Build 0)  -->
<!DOCTYPE svg PUBLIC "-//W3C//DTD SVG 1.1//EN" "http://www.w3.org/Graphics/SVG/1.1/DTD/svg11.dtd">
<svg version="1.1" id="Layer_1" xmlns="http://www.w3.org/2000/svg" xmlns:xlink="http://www.w3.org/1999/xlink" x="0px" y="0px"
	 viewBox="0 98 773.3 612" enable-background="new 0 98 773.3 612" xml:space="preserve">
<g>
	<path d="M131.7,227.4v342.1h187.7c94.4,0,170.8-76.9,170.8-170.8c0-94.4-76.9-170.8-170.8-170.8H131.7V227.4z M439.5,399.9
		c0,68.2-55.4,124.1-124.1,124.1c-33.8,0-67-14-90.3-39.1l26.8-25.1c16.9,17.5,39.1,27.4,63.5,27.4c48.4,0,87.4-39.1,87.4-87.4
		s-39.1-87.4-87.4-87.4h-0.6c-24.5-0.6-47.2,8.2-64.1,25.6l-26.2-26.2c23.9-23.9,57.1-37.3,90.9-36.1
		C383.5,275.8,439.5,331.7,439.5,399.9z M327.6,385.3c-9.3-9.3-23.9-9.3-32.6,0l-24.5-24.5c22.7-22.7,59.5-22.7,82.2,0
		c11.1,11.1,16.9,25.6,16.9,40.8c0,15.7-5.8,30.3-16.9,40.8l-25.1-23.9c4.7-4.7,7-10.5,7-16.3C334.6,395.8,332.2,390,327.6,385.3z"
		/>
	<path d="M612,215.7v-79.3c0-21.6-17.5-38.5-38.5-38.5h-79.3c0,21.6-17.5,39.1-39.1,39.1s-39.1-17.5-39.1-39.1h-71.1
		c0,21.6-17.5,39.1-39.1,39.1c-21.6,0-39.1-17.5-39.1-39.1h-71.1c0,21.6-17.5,39.1-39.1,39.1s-39.1-17.5-39.1-39.1H38.5
		C16.9,98,0,114.9,0,136.5v79.3c21.6,0,39.1,17.5,39.1,39.1S21.6,293.8,0,293.8v71.1c21.6,0,39.1,17.5,39.1,39.1S21.6,443.1,0,443.1
		v71.1c21.6,0,39.1,17.5,39.1,39.1S21.6,592.3,0,592.3v79.3c0,21,16.9,38.5,38.5,38.5h79.3c0-21.6,17.5-39.1,39.1-39.1
		s39.1,17.5,39.1,39.1h71.1c0-21.6,17.5-39.1,39.1-39.1c21.6,0,39.1,17.5,39.1,39.1h71.1c0-21.6,17.5-39.1,39.1-39.1
		c21.6,0,39.1,17.5,39.1,39.1h79.3c21,0,38.5-16.9,38.5-38.5v-79.3c-21.6,0-39.1-17.5-39.1-39.1c0-21.6,17.5-39.1,39.1-39.1v-71.1
		c-21.6,0-39.1-17.5-39.1-39.1c0-21.6,17.5-39.1,39.1-39.1v-71.1c-21.6,0-39.1-17.5-39.1-39.1C572.9,233.2,590.4,215.7,612,215.7z
		 M526.9,398.2v207.5H319.4H95v-415h224.4h207.5V398.2L526.9,398.2z"/>
</g>
<polygon fill="#939598" points="704,334.7 773.3,404 704,473.3 "/>
</svg>
