<?xml version="1.0" encoding="utf-8"?>
<!-- Generator: Adobe Illustrator 17.1.0, SVG Export Plug-In . SVG Version: 6.00 Build 0)  -->
<!DOCTYPE svg PUBLIC "-//W3C//DTD SVG 1.1//EN" "http://www.w3.org/Graphics/SVG/1.1/DTD/svg11.dtd">
<svg version="1.1" id="Layer_1" xmlns="http://www.w3.org/2000/svg" xmlns:xlink="http://www.w3.org/1999/xlink" x="0px" y="0px"
	 viewBox="0 0 203 193.7" enable-background="new 0 0 203 193.7" xml:space="preserve">
<path fill="#FFFFFF" d="M159.9,193.7c-1.1,0-2.2-0.3-3.3-0.8l-55.1-29l-55.1,29c-1,0.5-2.1,0.8-3.3,0.8c-1.5,0-2.9-0.5-4.1-1.3
	c-2.2-1.6-3.2-4.2-2.8-6.8l10.5-61.4L2.1,80.7c-1.9-1.9-2.6-4.6-1.8-7.2c0.8-2.5,3-4.4,5.7-4.8l61.7-9L95.2,3.9
	c1.2-2.4,3.6-3.9,6.3-3.9s5.1,1.5,6.3,3.9l27.6,55.9l61.7,9c2.6,0.4,4.8,2.2,5.7,4.8s0.1,5.3-1.8,7.2l-44.6,43.5l10.5,61.4
	c0.5,2.6-0.6,5.3-2.8,6.8C162.8,193.3,161.4,193.7,159.9,193.7z"/>
</svg>
