<?xml version="1.0" encoding="utf-8"?>
<!-- Generator: Adobe Illustrator 17.1.0, SVG Export Plug-In . SVG Version: 6.00 Build 0)  -->
<!DOCTYPE svg PUBLIC "-//W3C//DTD SVG 1.1//EN" "http://www.w3.org/Graphics/SVG/1.1/DTD/svg11.dtd">
<svg version="1.1" id="Layer_1" xmlns="http://www.w3.org/2000/svg" xmlns:xlink="http://www.w3.org/1999/xlink" x="0px" y="0px"
	 viewBox="-0.3 88 612.6 584" enable-background="new -0.3 88 612.6 584" xml:space="preserve">
<path fill="#FFFFFF" d="M286.8,99.8L203.9,268l-186,27.1c-8.1,1.2-14.8,6.9-17.2,14.5c-2.4,7.8-0.3,16,5.4,21.7l134.5,131.1
	l-31.7,185.1c-1.2,7.8,1.8,15.7,8.4,20.5c3.6,2.4,7.8,3.9,12.4,3.9c3.6,0,6.9-0.9,9.9-2.4l166.1-87.4V88
	C297.6,88,290.4,92.5,286.8,99.8z"/>
<g>
	<path fill="#5BC2EF" d="M286.8,99.8L203.9,268l-186,27.1c-8.1,1.2-14.8,6.9-17.2,14.5c-2.4,7.8-0.3,16,5.4,21.7l134.5,131.1
		l-31.7,185.1c-1.2,7.8,1.8,15.7,8.4,20.5c3.6,2.4,7.8,3.9,12.4,3.9c3.6,0,6.9-0.9,9.9-2.4l166.1-87.4V88
		C297.6,88,290.4,92.5,286.8,99.8z"/>
	<path fill="#FFFFFF" d="M481.8,672c4.5,0,8.7-1.2,12.7-3.6c6.6-4.5,9.9-12.7,8.4-20.5l-31.7-185.1l134.5-131.1
		c5.7-5.7,8.1-13.9,5.4-21.7c-2.7-7.8-9.3-13.3-17.2-14.5l-186-27.1L324.8,99.8c-3.6-7.2-10.9-11.8-19-11.8v494.1l166.1,87.4
		C475.2,671.1,478.5,672,481.8,672z"/>
</g>
</svg>
