<?xml version="1.0" encoding="utf-8"?>
<!-- Generator: Adobe Illustrator 18.0.0, SVG Export Plug-In . SVG Version: 6.00 Build 0)  -->
<!DOCTYPE svg PUBLIC "-//W3C//DTD SVG 1.1//EN" "http://www.w3.org/Graphics/SVG/1.1/DTD/svg11.dtd">
<svg version="1.1" id="Layer_1" xmlns="http://www.w3.org/2000/svg" xmlns:xlink="http://www.w3.org/1999/xlink" x="0px" y="0px"
	 viewBox="0 0 166.7 166.7" enable-background="new 0 0 166.7 166.7" xml:space="preserve">
<path fill="#FFFFFF" d="M156,83.3c0-5.9,4.8-10.7,10.7-10.7V53.3c-5.9,0-10.7-4.8-10.7-10.7S160.8,32,166.7,32V10.4
	C166.7,4.7,162,0,156.3,0h-21.6c0,5.9-4.8,10.7-10.7,10.7S113.3,5.9,113.3,0H94c0,5.9-4.8,10.7-10.7,10.7S72.7,5.9,72.7,0H53.3
	c0,5.9-4.8,10.7-10.7,10.7C36.8,10.7,32,5.9,32,0H10.4C4.7,0,0,4.7,0,10.4V32c5.9,0,10.7,4.8,10.7,10.7S5.9,53.3,0,53.3v19.3
	c5.9,0,10.7,4.8,10.7,10.7C10.7,89.2,5.9,94,0,94v19.3c5.9,0,10.7,4.8,10.7,10.7c0,5.9-4.8,10.7-10.7,10.7v21.6
	c0,5.8,4.7,10.4,10.4,10.4H32c0-5.9,4.8-10.7,10.7-10.7c5.9,0,10.7,4.8,10.7,10.7h19.3c0-5.9,4.8-10.7,10.7-10.7S94,160.8,94,166.7
	h19.3c0-5.9,4.8-10.7,10.7-10.7s10.7,4.8,10.7,10.7h21.6c5.8,0,10.4-4.7,10.4-10.4v-21.6c-5.9,0-10.7-4.8-10.7-10.7
	c0-5.9,4.8-10.7,10.7-10.7V94C160.8,94,156,89.2,156,83.3z M139.7,139.7H27V27h112.7V139.7z"/>
<g>
	<g>
		<path fill="#FFFFFF" d="M96.2,82.3v-22c0-7.1-5.8-12.9-12.9-12.9c-7.1,0-12.9,5.8-12.9,12.9v22c0,7.1,5.8,12.9,12.9,12.9
			C90.5,95.2,96.2,89.4,96.2,82.3L96.2,82.3z M96.2,82.3"/>
		<path fill="#FFFFFF" d="M106.2,83.6V73c1.3-0.9,2.9-2.3,3-3.6c0.2-2-3-3.9-3-3.9h-4.5v18c0,10.1-8.2,18.3-18.3,18.3
			c-10.1,0-18.3-8.2-18.3-18.3v-18h-4.5c0,0-3.2,1.8-3.1,3.9c0.1,1.3,1.7,2.7,3.1,3.6v10.6c0,10.7,7.4,19.7,17.4,22.2v8h-4.2v4.8
			h19.1v-4.8h-4.2v-8C98.7,103.4,106.2,94.3,106.2,83.6L106.2,83.6z M106.2,83.6"/>
	</g>
</g>
</svg>
