<?xml version="1.0" encoding="utf-8"?>
<!-- Generator: Adobe Illustrator 17.1.0, SVG Export Plug-In . SVG Version: 6.00 Build 0)  -->
<!DOCTYPE svg PUBLIC "-//W3C//DTD SVG 1.1//EN" "http://www.w3.org/Graphics/SVG/1.1/DTD/svg11.dtd">
<svg version="1.1" id="Layer_1" xmlns="http://www.w3.org/2000/svg" xmlns:xlink="http://www.w3.org/1999/xlink" x="0px" y="0px"
	 viewBox="253.6 434.5 612 612" enable-background="new 253.6 434.5 612 612" xml:space="preserve">
<g>
	<path fill="#FFFFFF" d="M865.6,552.2V473c0-21-16.9-38.5-38.5-38.5h-79.3c0,21.6-17.5,39.1-39.1,39.1s-39.1-17.5-39.1-39.1h-71.1
		c0,21.6-17.5,39.1-39.1,39.1c-21.6,0-39.1-17.5-39.1-39.1h-71.1c0,21.6-17.5,39.1-39.1,39.1s-39.1-17.5-39.1-39.1h-79.3
		c-21,0-38.5,16.9-38.5,38.5v79.3c21.6,0,39.1,17.5,39.1,39.1s-17.5,39.1-39.1,39.1v71.1c21.6,0,39.1,17.5,39.1,39.1
		s-17.5,39.1-39.1,39.1v71.1c21.6,0,39.1,17.5,39.1,39.1s-17.5,39.1-39.1,39.1v79.3c0,21,16.9,38.5,38.5,38.5h79.3
		c0-21.6,17.5-39.1,39.1-39.1s39.1,17.5,39.1,39.1h71.1c0-21.6,17.5-39.1,39.1-39.1c21.6,0,39.1,17.5,39.1,39.1h71.1
		c0-21.6,17.5-39.1,39.1-39.1s39.1,17.5,39.1,39.1h79.3c21,0,38.5-16.9,38.5-38.5v-79.3c-21.6,0-39.1-17.5-39.1-39.1
		s17.5-39.1,39.1-39.1v-71.1c-21.6,0-39.1-17.5-39.1-39.1s17.5-39.1,39.1-39.1v-71.1c-21.6,0-39.1-17.5-39.1-39.1
		S844,552.2,865.6,552.2z M780.5,734.7v207.5H573H348.6V526.6H573h207.5V734.7z"/>
	<rect x="385.3" y="563.9" fill="#FFFFFF" width="358.5" height="342.1"/>
</g>
</svg>
