<?xml version="1.0" encoding="utf-8"?>
<!-- Generator: Adobe Illustrator 17.1.0, SVG Export Plug-In . SVG Version: 6.00 Build 0)  -->
<!DOCTYPE svg PUBLIC "-//W3C//DTD SVG 1.1//EN" "http://www.w3.org/Graphics/SVG/1.1/DTD/svg11.dtd">
<svg version="1.1" id="Layer_1" xmlns="http://www.w3.org/2000/svg" xmlns:xlink="http://www.w3.org/1999/xlink" x="0px" y="0px"
	 viewBox="0 266.1 612.4 259.4" enable-background="new 0 266.1 612.4 259.4" xml:space="preserve">
<g>
	<g>
		<path d="M305.3,269.9H336c18.6,0,32.3,11.6,32.3,35.3c0,20.8-10.6,36.1-32.3,36.1h-30.7V269.9z M320.9,328h14
			c9,0,17.8-5.6,17.8-21.4c0-14.4-5-23.5-20.6-23.5h-11.2L320.9,328L320.9,328z"/>
		<path d="M388.9,318.8c0.4,9,4.8,13.2,12.8,13.2c5.6,0,10.2-3.6,11.2-6.8h12.6c-4,12.2-12.6,17.4-24.1,17.4
			c-16.4,0-26.3-11.2-26.3-27.1c0-15.6,10.8-27.3,26.3-27.3c17.6,0,26.1,14.8,25.1,30.7C426.4,318.8,388.9,318.8,388.9,318.8z
			 M412.1,309.8c-1.4-7.2-4.4-11-11.4-11c-9,0-11.6,7-11.8,11H412.1z"/>
		<path d="M433.2,305.4C434,292,446,288,457.6,288c10.4,0,22.7,2.4,22.7,14.8v26.9c0,4.8,0.4,9.4,1.8,11.6h-14.4c-0.4-1.6-1-3.2-1-5
			c-4.6,4.8-11.2,6.4-17.4,6.4c-9.8,0-17.6-5-17.6-15.6c0-11.8,8.8-14.6,17.6-15.8c8.8-1.2,16.8-1,16.8-6.8c0-6-4.2-7-9.2-7
			c-5.4,0-9,2.2-9.4,7.8C447.6,305.4,433.2,305.4,433.2,305.4z M465.9,316c-2.4,2.2-7.4,2.2-11.8,3c-4.4,1-8.4,2.4-8.4,7.6
			c0,5.4,4.2,6.6,8.8,6.6c11.2,0,11.6-8.8,11.6-12V316H465.9z"/>
		<path d="M490.9,289.6h13.6v9.6h0.2c2.6-6.4,9.6-11,16.4-11c1,0,2.2,0.2,3.2,0.4v13.2c-1.4-0.2-3.4-0.4-5.2-0.4
			c-10.4,0-14,7.6-14,16.6v23.3h-14.2V289.6z"/>
	</g>
</g>
<g>
	<path d="M352.8,383.6c-1-7-7.8-12.4-15.6-12.4c-14.2,0-19.4,12-19.4,24.5c0,12,5.4,23.9,19.4,23.9c9.6,0,15-6.6,16.2-16h15.2
		c-1.6,17.8-14,29.1-31.3,29.1c-22.1,0-35.1-16.4-35.1-37.1c0-21.2,13-37.7,35.1-37.7c15.6,0,28.9,9.2,30.7,25.7h-15.2V383.6z"/>
	<path d="M375.7,395.2c0.8-13.4,12.8-17.4,24.3-17.4c10.4,0,22.7,2.4,22.7,14.8v26.9c0,4.6,0.4,9.4,1.8,11.6h-14.4
		c-0.4-1.6-1-3.4-1-5c-4.6,4.6-11.2,6.4-17.4,6.4c-9.8,0-17.6-5-17.6-15.6c0-11.6,8.8-14.4,17.6-15.8c8.8-1.2,16.8-1,16.8-6.8
		c0-6-4.2-7-9.2-7c-5.4,0-9,2.2-9.4,7.8H375.7L375.7,395.2z M408.5,405.8c-2.4,2-7.4,2.2-11.8,3c-4.4,1-8.4,2.4-8.4,7.6
		c0,5.4,4.2,6.6,8.8,6.6c11.2,0,11.6-8.8,11.6-12v-5.2H408.5z"/>
	<path d="M444.2,414.2c0.2,6.2,5.4,8.8,11,8.8c4.2,0,9.4-1.6,9.4-6.6c0-4.4-6-5.8-16-8c-8.2-1.8-16.4-4.8-16.4-13.8
		c0-13.2,11.4-16.6,22.5-16.6c11.4,0,21.8,3.8,22.7,16.6h-13.6c-0.4-5.6-4.6-7-9.8-7c-3.2,0-8,0.6-8,4.8c0,5.2,8,5.8,16.2,7.8
		c8.4,2,16.4,5,16.4,14.4c0,13.6-11.8,18-23.5,18c-12,0-23.7-4.4-24.3-18.2h13.4V414.2z"/>
	<path d="M504.6,379.4H515v9.6h-10.4v25.5c0,4.8,1.2,6,6,6c1.6,0,3,0,4.4-0.4v11c-2.4,0.4-5.6,0.4-8.4,0.4c-8.8,0-16.4-2-16.4-12.4
		v-30.3h-8.6v-9.6h8.6v-15.4h14.2v15.6H504.6z"/>
</g>
<g>
	<g>
		<path d="M344.6,513.7c-5.8,5.6-12,8.4-20.2,8.4c-13,0-23.1-8-23.1-21.4c0-10,7.6-16.8,16-20.8c-3.8-4.6-6.8-9-6.8-15.2
			c0-10,9-16.4,18.6-16.4c10.8,0,19.6,5.8,19.6,17.2c0,8.4-5.6,14-12.8,17.8l9.2,11.4c1.4-2.6,2.2-5.6,2.6-8.4H360
			c-0.6,6.4-2.8,12.6-7,17.6l14.6,17h-17.4L344.6,513.7z M325.1,489.4c-5,2.2-10,6-10,11.8c0,5.2,4.8,9.4,10.2,9.4
			c5.2,0,8.8-2.6,12-6.4L325.1,489.4z M330,458.3c-3.4,0-6.4,2.6-6.4,6.2c0,4.6,3,7.4,5.6,10.8c4-2.6,7.4-5,7.4-10.2
			C336.4,461.3,333.4,458.3,330,458.3z"/>
		<path d="M418.4,473.4c-1-7.2-7.8-12.6-15.6-12.6c-14.2,0-19.4,12-19.4,24.5c0,12,5.2,23.9,19.4,23.9c9.6,0,15-6.6,16.2-16h15.2
			c-1.6,17.8-14,29.1-31.3,29.1c-22.1,0-35.1-16.4-35.1-37.1c0-21.2,13-37.7,35.1-37.7c15.8,0,28.9,9.2,30.7,25.7H418.4z"/>
		<path d="M443,469.2h13.6v9.6h0.2c2.6-6.4,9.6-11,16.4-11c1,0,2.2,0.2,3.2,0.4v13.2c-1.4-0.4-3.4-0.4-5.2-0.4
			c-10.4,0-14,7.6-14,16.6v23.3H443V469.2z"/>
		<path d="M493.3,498.4c0.4,9,4.8,13,12.8,13c5.6,0,10.2-3.6,11.2-6.8h12.6c-4,12.2-12.6,17.4-24.1,17.4
			c-16.4,0-26.3-11.2-26.3-27.1c0-15.6,10.8-27.3,26.3-27.3c17.6,0,26.1,14.8,25.1,30.7h-37.5V498.4z M516.4,489.4
			c-1.4-7.2-4.4-11-11.4-11c-9,0-11.6,7-11.8,11H516.4z"/>
		<path d="M595.8,520.7h-14.6l-9.2-34.7h-0.2l-8.8,34.7h-14.6L532.2,469h15l9.6,35.1h0.2l8.6-35.1h13.8l8.8,34.9h0.2l9.6-34.9h14.6
			L595.8,520.7z"/>
	</g>
	<path d="M259.8,316v-33.7c0-9-7.2-16.2-16.2-16.2h-33.7c0,9.2-7.4,16.6-16.6,16.6s-16.6-7.4-16.6-16.6h-30.1
		c0,9.2-7.4,16.6-16.6,16.6c-9.2,0-16.6-7.4-16.6-16.6H83.2c0,9.2-7.4,16.6-16.6,16.6c-9.4,0-16.8-7.4-16.8-16.6H16.2
		c-9,0-16.2,7.2-16.2,16.2V316c9.2,0,16.6,7.4,16.6,16.6S9.2,349.1,0,349.1v30.1c9.2,0,16.6,7.4,16.6,16.6c0,9.2-7.4,16.6-16.6,16.6
		v30.1c9.2,0,16.6,7.4,16.6,16.6c0,9.2-7.4,16.6-16.6,16.6v33.7c0,9,7.2,16.2,16.2,16.2h33.7c0-9.2,7.4-16.6,16.6-16.6
		S83,516.3,83,525.5h30.1c0-9.2,7.4-16.6,16.6-16.6c9.2,0,16.6,7.4,16.6,16.6h30.1c0-9.2,7.4-16.6,16.6-16.6
		c9.2,0,16.6,7.4,16.6,16.6h33.7c9,0,16.2-7.2,16.2-16.2v-33.7c-9.2,0-16.6-7.4-16.6-16.6s7.4-16.6,16.6-16.6v-29.7
		c-9.2,0-16.6-7.4-16.6-16.6c0-9.2,7.4-16.6,16.6-16.6v-30.3c-9.2,0-16.6-7.4-16.6-16.6C243.2,323.4,250.6,316,259.8,316z
		 M223.9,393.6V482h-88.2H40.3V305.4h95.2h88.4V393.6z"/>
	<path d="M135.5,321H55.9v145.3h79.6c40.1,0,72.6-32.5,72.6-72.6C208.1,353.5,175.6,321,135.5,321z M133.9,447.1
		c-14.4,0-28.3-6-38.3-16.6l11.4-10.8c7.2,7.6,16.8,11.6,26.9,11.6c20.6,0,37.1-16.6,37.1-37.1s-16.6-37.1-37.1-37.1h-0.2
		c-10.4-0.4-20,3.6-27.3,10.8l-11-11c10.2-10.2,24.3-15.8,38.7-15.4c28.9,0,52.7,23.7,52.7,52.7C186.6,423.3,163,447.1,133.9,447.1z
		 M139.3,388.2c-3.8-3.8-10.2-3.8-14,0l-10.6-10.4c9.6-9.6,25.3-9.6,34.9,0c9.6,9.6,9.6,25.1,0,34.7l-10.4-10.4
		C143.1,398.4,143.1,392,139.3,388.2z"/>
</g>
</svg>
