<?xml version="1.0" encoding="utf-8"?>
<!-- Generator: Adobe Illustrator 20.0.0, SVG Export Plug-In . SVG Version: 6.00 Build 0)  -->
<svg version="1.1" id="Layer_1" xmlns="http://www.w3.org/2000/svg" xmlns:xlink="http://www.w3.org/1999/xlink" x="0px" y="0px"
	 viewBox="0 0 586.5 483.8" style="enable-background:new 0 0 586.5 483.8;" xml:space="preserve">
<style type="text/css">
	.st0{fill:#FFFFFF;}
	.st1{fill:#F6A61F;}
</style>
<g>
	<path class="st0" d="M432.2,176.7c0,20,0.7,39.8-0.2,59.8c-1,22.7,6,42.2,20.3,59.4c1.7,2,3.2,4.1,4.7,6.2
		c5.1,7.8,4.2,13.1-2.9,19.1c-15.1,12.7-30,25.5-45.1,38.1c-9,7.5-14.6,7.4-23.7,0c-12.2-9.9-21.8-22.1-30.2-35.1
		c-2-3.1-3.1-3-5.6-0.6c-15.1,14.7-31,28.3-51.2,35.1c-31.2,10.6-62.9,12.3-94.2,1.2C174,349.2,156,327,149.3,296
		c-7.4-34.5-3.6-67.4,17.7-96.7c16.1-22.1,38.5-35.1,64.2-43.1c26.5-8.1,53.9-11.2,81.4-14c7.8-0.8,15.4-1.6,23.2-2.3
		c1.9-0.1,3.6-0.4,3.5-2.9c-0.2-12.7,1.1-25.6-1.9-38c-3.8-15.9-14.2-25.2-30.1-28.7c-11.4-2.5-22.6-1.8-33.6,1.9
		c-16.7,5.7-27.1,17.3-31.3,34.5c-2.3,9.4-6.7,12.8-15.9,11.8c-19.6-2-39.2-4.1-58.7-6.1c-8-0.8-12.2-6.9-10.5-14.7
		c10.2-49.6,42.7-77.5,89.5-90.2c36-9.8,72.4-10.4,108.5-0.2c29,8.1,53.4,22.5,67.1,50.9c7.8,16.1,9.6,33.6,9.8,51
		C432.3,131.7,432.1,154.3,432.2,176.7C432.1,176.7,432.2,176.7,432.2,176.7z M339.2,214c0-6-0.2-12,0.1-17.9c0.2-3.7-1.1-5-4.8-4.7
		c-9.1,0.8-18.3,1-27.4,2.2c-15.9,2-31.4,6-44.3,16c-18.8,14.7-22.7,34.8-19.6,57.4c3.7,26.5,27.4,41.2,52.7,32.4
		c17.2-6,27.7-18.6,35-34.5C338.6,248.7,339.2,231.4,339.2,214z"/>
	<path class="st1" d="M295,483.8c-91.2-0.6-173.1-24-247.1-73.4c-15.1-10-29.4-21-43-33.1c-1.2-1.1-2.4-2.2-3.3-3.5
		c-1.3-1.8-2.3-3.9-0.7-6.1c1.6-2.4,4.2-2.6,6.5-1.6c5.3,2.5,10.3,5.3,15.4,7.9c47.1,24.9,96.7,42.8,148.7,54.1
		c47.1,10.3,94.7,15.1,143,13.7c69-1.9,135.4-15.8,199.4-41.5c3.1-1.3,6.3-2.6,9.6-3.3c4.5-0.8,9.1-0.2,11.1,4.7
		c1.9,4.5-0.6,8.1-3.9,11c-2.4,2-5.1,3.7-7.9,5.5c-41.2,26.8-86.4,44-134.2,54.6C356.8,480.1,324.7,483.6,295,483.8z"/>
	<path class="st1" d="M525.1,377.3c-13.7-0.1-27.4,1.7-41,3.1c-2.6,0.2-5.6,1-6.8-1.9c-1.4-3.2,1.3-5.1,3.6-6.7
		c17-11.2,36-15.7,55.9-16.7c13.7-0.8,27.4-0.2,40.8,3.8c6.1,1.8,9.1,5.4,9,11.6c-0.7,33.2-11.8,62.2-35.9,85.7
		c-0.8,0.8-1.8,1.6-2.7,2.3c-2.2,1.6-4.8,3-7.1,1.1c-2.2-1.8-1-4.4,0-6.6c7.1-17.6,14.2-35,17.7-53.8c0.5-2.4,0.6-4.8,0.7-7.1
		c0.1-7.8-2.6-11.1-10.3-13C541,377,533,377.3,525.1,377.3z"/>
</g>
</svg>
