<?xml version="1.0" encoding="utf-8"?>
<!-- Generator: Adobe Illustrator 18.0.0, SVG Export Plug-In . SVG Version: 6.00 Build 0)  -->
<!DOCTYPE svg PUBLIC "-//W3C//DTD SVG 1.1//EN" "http://www.w3.org/Graphics/SVG/1.1/DTD/svg11.dtd">
<svg version="1.1" id="Layer_1" xmlns="http://www.w3.org/2000/svg" xmlns:xlink="http://www.w3.org/1999/xlink" x="0px" y="0px"
	 viewBox="292.6 383 27.2 26" enable-background="new 292.6 383 27.2 26" xml:space="preserve">
<path fill="#FFFFFF" stroke="#757371" stroke-miterlimit="10" d="M313.7,408.5c-0.1,0-0.3,0-0.4-0.1l-7.1-3.7l-7.1,3.7
	c-0.1,0.1-0.3,0.1-0.4,0.1c-0.2,0-0.4-0.1-0.5-0.2c-0.3-0.2-0.4-0.5-0.4-0.9l1.4-7.9l-5.8-5.6c-0.2-0.2-0.3-0.6-0.2-0.9
	c0.1-0.3,0.4-0.6,0.7-0.6l8-1.2l3.5-7.2c0.2-0.3,0.5-0.5,0.8-0.5c0.3,0,0.7,0.2,0.8,0.5l3.6,7.2l8,1.2c0.3,0.1,0.6,0.3,0.7,0.6
	c0.1,0.3,0,0.7-0.2,0.9l-5.8,5.6l1.4,7.9c0.1,0.3-0.1,0.7-0.4,0.9C314.1,408.4,313.9,408.5,313.7,408.5z"/>
</svg>
