<?xml version="1.0" encoding="utf-8"?>
<!-- Generator: Adobe Illustrator 19.0.0, SVG Export Plug-In . SVG Version: 6.00 Build 0)  -->
<svg version="1.1" id="Layer_1" xmlns="http://www.w3.org/2000/svg" xmlns:xlink="http://www.w3.org/1999/xlink" x="0px" y="0px"
	 viewBox="5.7 445.3 358.5 342.1" style="enable-background:new 5.7 445.3 358.5 342.1;" xml:space="preserve">
<g>
	<path d="M5.7,445.3v342.1h187.7c94.4,0,170.8-76.9,170.8-170.8c0-94.4-76.9-170.8-170.8-170.8H5.7V445.3z M313.5,617.8
		c0,68.2-55.4,124.1-124.1,124.1c-33.8,0-67-14-90.3-39.1l26.8-25.1c16.9,17.5,39.1,27.4,63.5,27.4c48.4,0,87.4-39.1,87.4-87.4
		s-39.1-87.4-87.4-87.4h-0.6c-24.5-0.6-47.2,8.2-64.1,25.6l-26.2-26.2c23.9-23.9,57.1-37.3,90.9-36.1
		C257.5,493.7,313.5,549.6,313.5,617.8z M201.6,603.2c-9.3-9.3-23.9-9.3-32.6,0l-24.5-24.5c22.7-22.7,59.5-22.7,82.2,0
		c11.1,11.1,16.9,25.6,16.9,40.8c0,15.7-5.8,30.3-16.9,40.8l-25.1-23.9c4.7-4.7,7-10.5,7-16.3C208.6,613.7,206.2,607.9,201.6,603.2z
		"/>
</g>
</svg>
