<?xml version="1.0" encoding="utf-8"?>
<!-- Generator: Adobe Illustrator 18.0.0, SVG Export Plug-In . SVG Version: 6.00 Build 0)  -->
<!DOCTYPE svg PUBLIC "-//W3C//DTD SVG 1.1//EN" "http://www.w3.org/Graphics/SVG/1.1/DTD/svg11.dtd">
<svg version="1.1" id="Layer_1" xmlns="http://www.w3.org/2000/svg" xmlns:xlink="http://www.w3.org/1999/xlink" x="0px" y="0px"
	 viewBox="0 0 166.7 166.7" enable-background="new 0 0 166.7 166.7" xml:space="preserve">
<path fill="#FFFFFF" d="M156,83.3c0-5.9,4.8-10.7,10.7-10.7V53.3c-5.9,0-10.7-4.8-10.7-10.7S160.8,32,166.7,32V10.4
	C166.7,4.7,162,0,156.3,0h-21.6c0,5.9-4.8,10.7-10.7,10.7S113.3,5.9,113.3,0H94c0,5.9-4.8,10.7-10.7,10.7S72.7,5.9,72.7,0H53.3
	c0,5.9-4.8,10.7-10.7,10.7C36.8,10.7,32,5.9,32,0H10.4C4.7,0,0,4.7,0,10.4V32c5.9,0,10.7,4.8,10.7,10.7S5.9,53.3,0,53.3v19.3
	c5.9,0,10.7,4.8,10.7,10.7C10.7,89.2,5.9,94,0,94v19.3c5.9,0,10.7,4.8,10.7,10.7c0,5.9-4.8,10.7-10.7,10.7v21.6
	c0,5.8,4.7,10.4,10.4,10.4H32c0-5.9,4.8-10.7,10.7-10.7c5.9,0,10.7,4.8,10.7,10.7h19.3c0-5.9,4.8-10.7,10.7-10.7S94,160.8,94,166.7
	h19.3c0-5.9,4.8-10.7,10.7-10.7s10.7,4.8,10.7,10.7h21.6c5.8,0,10.4-4.7,10.4-10.4v-21.6c-5.9,0-10.7-4.8-10.7-10.7
	c0-5.9,4.8-10.7,10.7-10.7V94C160.8,94,156,89.2,156,83.3z M139.7,139.7H27V27h112.7V139.7z"/>
<g>
	<path fill="#FFFFFF" d="M96.1,58.1v-1.5c0-1.7-1.4-3.1-3.1-3.1H88c0.4-0.8,0.7-1.7,0.7-2.7c0-3.1-2.6-5.7-5.7-5.7
		c-3.2,0-5.7,2.6-5.7,5.7c0,1,0.2,1.9,0.7,2.7h-4.2c-1.7,0-3.1,1.4-3.1,3.1v1.5h-6.9c-2.6,0-4.7,2.1-4.7,4.7v46.2
		c0,2.6,2.1,4.7,4.7,4.7H103c2.6,0,4.7-2.1,4.7-4.7V62.7c0-2.6-2.1-4.7-4.7-4.7H96.1z M79.5,50.8c0-1.9,1.5-3.4,3.4-3.4
		c1.9,0,3.4,1.5,3.4,3.4c0,1.1-0.5,2-1.3,2.7h-4.2C80,52.8,79.5,51.9,79.5,50.8L79.5,50.8z M103,106.2c0,1.6-1.3,2.9-2.9,2.9H66.6
		c-1.6,0-2.9-1.3-2.9-2.9V65.6c0-1.6,1.3-2.9,2.9-2.9h4c0,1.3,1,2.3,2.3,2.3h20.9c1.3,0,2.3-1,2.3-2.3h4c1.6,0,2.9,1.3,2.9,2.9
		V106.2z M103,106.2"/>
	<path fill="#FFFFFF" d="M76.4,73.1c0,2.3-1.8,4.1-4.1,4.1c-2.3,0-4.1-1.8-4.1-4.1c0-2.2,1.8-4.1,4.1-4.1
		C74.6,69.1,76.4,70.9,76.4,73.1L76.4,73.1z M76.4,73.1"/>
	<path fill="#FFFFFF" d="M95.5,70.9H81.6c-1.3,0-2.3,1-2.3,2.3c0,1.3,1,2.3,2.3,2.3h13.9c1.3,0,2.3-1,2.3-2.3
		C97.8,71.9,96.8,70.9,95.5,70.9L95.5,70.9z M95.5,70.9"/>
	<path fill="#FFFFFF" d="M76.4,84.7c0,2.3-1.8,4.1-4.1,4.1c-2.3,0-4.1-1.8-4.1-4.1c0-2.3,1.8-4.1,4.1-4.1
		C74.6,80.6,76.4,82.5,76.4,84.7L76.4,84.7z M76.4,84.7"/>
	<path fill="#FFFFFF" d="M95.5,82.4H81.6c-1.3,0-2.3,1.1-2.3,2.3c0,1.3,1,2.3,2.3,2.3h13.9c1.3,0,2.3-1.1,2.3-2.3
		C97.8,83.4,96.8,82.4,95.5,82.4L95.5,82.4z M95.5,82.4"/>
	<path fill="#FFFFFF" d="M76.4,97c0,2.3-1.8,4.1-4.1,4.1c-2.3,0-4.1-1.8-4.1-4.1s1.8-4.1,4.1-4.1C74.6,93,76.4,94.8,76.4,97L76.4,97
		z M76.4,97"/>
	<path fill="#FFFFFF" d="M95.5,94.7H81.6c-1.3,0-2.3,1.1-2.3,2.3c0,1.3,1,2.3,2.3,2.3h13.9c1.3,0,2.3-1.1,2.3-2.3
		C97.8,95.8,96.8,94.7,95.5,94.7L95.5,94.7z M95.5,94.7"/>
</g>
</svg>
