<?xml version="1.0" encoding="utf-8"?>
<!-- Generator: Adobe Illustrator 17.1.0, SVG Export Plug-In . SVG Version: 6.00 Build 0)  -->
<!DOCTYPE svg PUBLIC "-//W3C//DTD SVG 1.1//EN" "http://www.w3.org/Graphics/SVG/1.1/DTD/svg11.dtd">
<svg version="1.1" id="Layer_1" xmlns="http://www.w3.org/2000/svg" xmlns:xlink="http://www.w3.org/1999/xlink" x="0px" y="0px"
	 viewBox="0 0 105 105" enable-background="new 0 0 105 105" xml:space="preserve">
<g>
	<path d="M22.6,22.2v58.7h32.2c16.2,0,29.3-13.2,29.3-29.3c0-16.2-13.2-29.3-29.3-29.3H22.6z M75.4,51.8c0,11.7-9.5,21.3-21.3,21.3
		c-5.8,0-11.5-2.4-15.5-6.7l4.6-4.3c2.9,3,6.7,4.7,10.9,4.7c8.3,0,15-6.7,15-15s-6.7-15-15-15l-0.1,0c-4.2-0.1-8.1,1.4-11,4.4
		l-4.5-4.5c4.1-4.1,9.8-6.4,15.6-6.2C65.8,30.5,75.4,40.1,75.4,51.8z M56.2,49.3c-1.6-1.6-4.1-1.6-5.6,0l-4.2-4.2
		c3.9-3.9,10.2-3.9,14.1,0c1.9,1.9,2.9,4.4,2.9,7c0,2.7-1,5.2-2.9,7L56.2,55c0.8-0.8,1.2-1.8,1.2-2.8C57.4,51.1,57,50.1,56.2,49.3z"
		/>
	<path d="M105,20.2V6.6C105,2.9,102,0,98.4,0H84.8c0,3.7-3,6.7-6.7,6.7c-3.7,0-6.7-3-6.7-6.7H59.2c0,3.7-3,6.7-6.7,6.7
		c-3.7,0-6.7-3-6.7-6.7H33.6c0,3.7-3,6.7-6.7,6.7c-3.7,0-6.7-3-6.7-6.7H6.6C2.9,0,0,2.9,0,6.6v13.6c3.7,0,6.7,3,6.7,6.7
		c0,3.7-3,6.7-6.7,6.7v12.2c3.7,0,6.7,3,6.7,6.7c0,3.7-3,6.7-6.7,6.7v12.2c3.7,0,6.7,3,6.7,6.7c0,3.7-3,6.7-6.7,6.7v13.6
		c0,3.6,2.9,6.6,6.6,6.6h13.6c0-3.7,3-6.7,6.7-6.7c3.7,0,6.7,3,6.7,6.7h12.2c0-3.7,3-6.7,6.7-6.7c3.7,0,6.7,3,6.7,6.7h12.2
		c0-3.7,3-6.7,6.7-6.7c3.7,0,6.7,3,6.7,6.7h13.6c3.6,0,6.6-2.9,6.6-6.6V84.8c-3.7,0-6.7-3-6.7-6.7c0-3.7,3-6.7,6.7-6.7V59.2
		c-3.7,0-6.7-3-6.7-6.7c0-3.7,3-6.7,6.7-6.7V33.6c-3.7,0-6.7-3-6.7-6.7C98.3,23.2,101.3,20.2,105,20.2z M90.4,51.5v35.6H54.8H16.3
		V15.9h38.5h35.6V51.5z"/>
</g>
</svg>
