<?xml version="1.0" encoding="utf-8"?>
<!-- Generator: Adobe Illustrator 17.1.0, SVG Export Plug-In . SVG Version: 6.00 Build 0)  -->
<!DOCTYPE svg PUBLIC "-//W3C//DTD SVG 1.1//EN" "http://www.w3.org/Graphics/SVG/1.1/DTD/svg11.dtd">
<svg version="1.1" id="Layer_1" xmlns="http://www.w3.org/2000/svg" xmlns:xlink="http://www.w3.org/1999/xlink" x="0px" y="0px"
	 viewBox="-0.1 104 612.6 584" enable-background="new -0.1 104 612.6 584" xml:space="preserve">
<path fill="#949698" d="M482.1,688c-3.3,0-6.6-0.9-9.9-2.4L306,598.1l-166.1,87.4c-3,1.5-6.3,2.4-9.9,2.4c-4.5,0-8.7-1.5-12.4-3.9
	c-6.6-4.8-9.6-12.7-8.4-20.5l31.7-185.1L6.3,347.3c-5.7-5.7-7.8-13.9-5.4-21.7c2.4-7.5,9-13.3,17.2-14.5l186-27.1L287,115.8
	c3.6-7.2,10.9-11.8,19-11.8s15.4,4.5,19,11.8l83.2,168.5l186,27.1c7.8,1.2,14.5,6.6,17.2,14.5c2.7,7.8,0.3,16-5.4,21.7L471.5,478.8
	l31.7,185.1c1.5,7.8-1.8,16-8.4,20.5C490.8,686.8,486.6,688,482.1,688z"/>
</svg>
