<?xml version="1.0" encoding="utf-8"?>
<!-- Generator: Adobe Illustrator 17.1.0, SVG Export Plug-In . SVG Version: 6.00 Build 0)  -->
<!DOCTYPE svg PUBLIC "-//W3C//DTD SVG 1.1//EN" "http://www.w3.org/Graphics/SVG/1.1/DTD/svg11.dtd">
<svg version="1.1" id="Layer_1" xmlns="http://www.w3.org/2000/svg" xmlns:xlink="http://www.w3.org/1999/xlink" x="0px" y="0px"
	 viewBox="-0.3 192.3 611.9 583.4" enable-background="new -0.3 192.3 611.9 583.4" xml:space="preserve">
<path fill="#FFFFFF" d="M286.5,204.1l-82.8,168L17.9,399.2c-8.1,1.2-14.8,6.9-17.2,14.5c-2.4,7.8-0.3,16,5.4,21.7l134.4,131
	l-31.7,184.9c-1.2,7.8,1.8,15.7,8.4,20.5c3.6,2.4,7.8,3.9,12.4,3.9c3.6,0,6.9-0.9,9.9-2.4l165.9-87.3V192.3
	C297.3,192.3,290.1,196.8,286.5,204.1z"/>
<g>
	<path fill="#EF3825" d="M286.5,204.1l-82.8,168L17.9,399.2c-8.1,1.2-14.8,6.9-17.2,14.5c-2.4,7.8-0.3,16,5.4,21.7l134.4,131
		l-31.7,184.9c-1.2,7.8,1.8,15.7,8.4,20.5c3.6,2.4,7.8,3.9,12.4,3.9c3.6,0,6.9-0.9,9.9-2.4l165.9-87.3V192.3
		C297.3,192.3,290.1,196.8,286.5,204.1z"/>
	<path fill="#949698" d="M481.3,775.7c4.5,0,8.7-1.2,12.7-3.6c6.6-4.5,9.9-12.7,8.4-20.5l-31.7-184.9l134.4-131
		c5.7-5.7,8.1-13.9,5.4-21.7c-2.7-7.8-9.3-13.3-17.2-14.5l-185.8-27.1l-83-168.4c-3.6-7.2-10.9-11.8-19-11.8v493.6l165.9,87.3
		C474.7,774.8,478,775.7,481.3,775.7z"/>
</g>
</svg>
